<svg xmlns="http://www.w3.org/2000/svg" width="1000" height="1000" viewBox="0 0 1000 1000" version="1.1"><path d="M 201.500 24.997 C 200.400 25.472, 197.025 25.911, 194 25.974 C 190.975 26.036, 186.700 26.736, 184.500 27.529 C 182.300 28.321, 179.064 28.977, 177.309 28.985 C 175.554 28.993, 173.840 29.450, 173.500 30 C 173.160 30.550, 171.420 31, 169.632 31 C 167.845 31, 165.509 31.661, 164.441 32.468 C 163.374 33.276, 161.632 33.951, 160.571 33.968 C 158.490 34.003, 153.310 35.535, 148.500 37.539 C 146.850 38.227, 144.375 39.242, 143 39.796 C 139.595 41.166, 123.961 48.830, 121.558 50.307 C 104.137 61.015, 94.287 68.608, 82.267 80.597 C 73.136 89.705, 57 110.339, 57 112.908 C 57 113.509, 56.627 114, 56.171 114 C 55.715 114, 53.872 116.925, 52.075 120.500 C 50.279 124.075, 48.402 127.252, 47.904 127.559 C 47.407 127.867, 47 128.991, 47 130.059 C 47 131.127, 46.550 132, 46 132 C 45.450 132, 45 132.718, 45 133.596 C 45 134.473, 44.261 136.611, 43.357 138.346 C 40.316 144.185, 40 144.967, 39.968 146.736 C 39.951 147.706, 39.276 149.374, 38.468 150.441 C 37.661 151.509, 37 153.395, 37 154.632 C 37 155.870, 36.550 157.160, 36 157.500 C 35.450 157.840, 35 159.801, 35 161.859 C 35 163.917, 34.471 166.129, 33.824 166.776 C 33.177 167.423, 32.256 170.326, 31.778 173.226 C 25.914 208.798, 26.071 199.920, 26.056 497 C 26.044 736.200, 26.225 769.294, 27.620 783 C 28.488 791.525, 29.415 801.425, 29.680 805 C 29.945 808.575, 30.575 811.927, 31.081 812.450 C 31.586 812.972, 32.003 815.222, 32.006 817.450 C 32.010 819.677, 32.685 822.789, 33.506 824.364 C 34.328 825.940, 35 828.501, 35 830.055 C 35 831.610, 35.450 833.160, 36 833.500 C 36.550 833.840, 37.014 835.329, 37.032 836.809 C 37.049 838.289, 37.724 840.374, 38.532 841.441 C 39.339 842.509, 40 844.395, 40 845.632 C 40 846.870, 40.450 848.160, 41 848.500 C 41.550 848.840, 42 849.775, 42 850.579 C 42 851.382, 43.125 853.822, 44.500 856 C 45.875 858.178, 47 860.428, 47 861 C 47 861.572, 48.125 863.822, 49.500 866 C 50.875 868.178, 52 870.644, 52 871.480 C 52 872.316, 52.417 873, 52.927 873 C 53.436 873, 54.561 874.350, 55.427 876 C 56.292 877.650, 57.672 880.277, 58.493 881.838 C 59.313 883.399, 60.888 885.494, 61.993 886.493 C 63.097 887.492, 64 888.807, 64 889.415 C 64 890.023, 65.012 891.645, 66.250 893.019 C 67.487 894.393, 70.278 897.764, 72.450 900.509 C 77.899 907.393, 92.357 921.563, 99.541 927.060 C 109.891 934.979, 115.731 939, 116.884 939 C 117.498 939, 118 939.355, 118 939.789 C 118 940.223, 120.587 941.908, 123.750 943.533 C 126.912 945.159, 129.860 947.054, 130.300 947.744 C 130.740 948.435, 131.683 949, 132.396 949 C 134.076 949, 139.790 951.851, 140.539 953.063 C 140.858 953.578, 142.190 954, 143.500 954 C 144.810 954, 146.160 954.450, 146.500 955 C 146.840 955.550, 147.936 956, 148.937 956 C 149.937 956, 151.315 956.675, 152 957.500 C 152.685 958.325, 154.288 959, 155.563 959 C 156.839 959, 158.160 959.450, 158.500 960 C 158.840 960.550, 159.998 961, 161.073 961 C 162.148 961, 163.809 961.394, 164.764 961.876 C 165.719 962.357, 169.200 963.513, 172.500 964.445 C 175.800 965.377, 179.882 966.558, 181.571 967.070 C 183.260 967.581, 186.043 968, 187.756 968 C 189.469 968, 192.137 968.527, 193.685 969.170 C 204.065 973.486, 234.518 973.977, 509 974.247 C 707.050 974.442, 769.386 974.216, 779 973.269 C 800.593 971.142, 805.461 970.504, 806.850 969.619 C 807.592 969.146, 810.742 968.391, 813.850 967.943 C 822.730 966.661, 831.269 964.343, 836.236 961.866 C 837.191 961.390, 838.660 961, 839.500 961 C 840.340 961, 841.809 960.616, 842.764 960.147 C 843.719 959.678, 846.075 958.609, 848 957.772 C 852.991 955.602, 868.139 948.131, 870.442 946.704 C 871.509 946.042, 874.884 943.973, 877.942 942.107 C 883.237 938.875, 896.268 929.668, 898.597 927.514 C 903.657 922.834, 913.446 914.433, 914.160 914.159 C 914.648 913.971, 916.647 911.721, 918.601 909.159 C 920.555 906.596, 923.863 902.674, 925.952 900.442 C 928.041 898.210, 930.493 894.948, 931.401 893.192 C 932.309 891.436, 933.395 890, 933.816 890 C 934.236 890, 935.894 887.750, 937.500 885 C 939.106 882.250, 940.776 880, 941.210 880 C 941.645 880, 942 879.380, 942 878.622 C 942 877.865, 942.675 876.685, 943.500 876 C 944.325 875.315, 945 873.910, 945 872.878 C 945 871.845, 945.371 871, 945.824 871 C 946.278 871, 947.885 868.187, 949.396 864.750 C 950.907 861.313, 952.564 857.825, 953.078 857 C 953.592 856.175, 954.268 854.825, 954.579 854 C 954.891 853.175, 955.563 851.719, 956.073 850.764 C 956.583 849.809, 957.014 848.234, 957.032 847.264 C 957.049 846.294, 957.724 844.626, 958.532 843.559 C 959.339 842.491, 960 840.605, 960 839.368 C 960 838.130, 960.450 836.840, 961 836.500 C 961.550 836.160, 962 834.835, 962 833.555 C 962 832.276, 962.672 829.940, 963.494 828.364 C 964.315 826.789, 964.990 823.903, 964.994 821.950 C 964.997 819.998, 965.406 817.973, 965.903 817.450 C 966.891 816.410, 967.112 814.809, 969.412 792 C 971.690 769.408, 971.674 222.334, 969.395 200.500 C 968.591 192.800, 967.684 184.025, 967.379 181 C 967.074 177.975, 966.414 175.072, 965.912 174.550 C 965.410 174.027, 965 172.326, 965 170.768 C 965 169.210, 964.325 166.320, 963.500 164.346 C 962.675 162.371, 962 159.712, 962 158.437 C 962 157.162, 961.550 155.840, 961 155.500 C 960.450 155.160, 960 153.870, 960 152.632 C 960 151.395, 959.339 149.509, 958.532 148.441 C 957.724 147.374, 957.049 145.706, 957.032 144.736 C 957.014 143.766, 956.616 142.191, 956.147 141.236 C 955.678 140.281, 954.614 137.925, 953.783 136 C 951 129.557, 946.592 120.505, 945.991 120 C 945.664 119.725, 944.613 117.925, 943.656 116 C 940.581 109.814, 937.821 105.521, 936.392 104.700 C 935.626 104.260, 935 103.310, 935 102.589 C 935 101.868, 932.975 99.103, 930.500 96.445 C 928.025 93.788, 926 91.223, 926 90.745 C 926 89.281, 906.811 70.033, 901.500 66.170 C 898.750 64.169, 895.380 61.513, 894.010 60.266 C 892.641 59.020, 891.108 58, 890.605 58 C 890.101 58, 888.214 56.875, 886.411 55.500 C 884.608 54.125, 882.653 53, 882.067 53 C 881.480 53, 881 52.657, 881 52.237 C 881 51.818, 880.115 51.030, 879.033 50.487 C 873.789 47.855, 859.300 40.613, 857.764 39.856 C 856.809 39.385, 855.401 39, 854.636 39 C 853.871 39, 852.685 38.325, 852 37.500 C 851.315 36.675, 849.550 36, 848.078 36 C 846.605 36, 844.973 35.577, 844.450 35.060 C 843.928 34.543, 842.375 33.896, 841 33.622 C 839.625 33.348, 837.150 32.684, 835.500 32.146 C 827.724 29.612, 825.121 29, 822.113 29 C 820.329 29, 817.886 28.467, 816.684 27.816 C 815.483 27.164, 810.900 26.202, 806.500 25.678 C 796.316 24.464, 204.283 23.798, 201.500 24.997 M 407.500 92.234 C 385.414 97.654, 365.525 113.400, 356.639 132.500 C 355.616 134.700, 354.416 137.221, 353.972 138.103 C 353.529 138.985, 352.855 141.783, 352.475 144.321 C 351.484 150.930, 352.164 150.778, 321.500 151.213 C 292.594 151.623, 292.304 151.663, 286.483 156 C 282.643 158.861, 277 166.371, 277 168.621 C 277 172.016, 277.937 171.927, 237.380 172.399 C 216.546 172.642, 197.025 173.123, 194 173.468 C 167.454 176.493, 144.027 197.208, 137.488 223.438 C 135.553 231.198, 135.712 806.740, 137.650 813.181 C 143.756 833.465, 162.119 852.182, 182 858.384 C 191.577 861.371, 207.968 861.554, 464.500 861.527 L 715.500 861.500 715.721 829.500 C 715.971 793.279, 716.072 792.220, 719.595 788.910 L 722.160 786.500 755.029 786.500 C 796.144 786.500, 790.494 774.982, 790.992 859.807 C 790.999 860.869, 800.840 861.054, 843.750 860.794 L 896.500 860.475 901.500 857.641 C 908.563 853.638, 908.988 853.193, 912.158 846.500 L 914.998 840.500 914.999 642.978 L 915 445.456 911.870 441.659 C 908.783 437.913, 904.836 435.798, 871 419.752 C 866.325 417.535, 852.825 410.998, 841 405.226 C 820.700 395.318, 809.932 390.121, 784.812 378.110 C 771.224 371.614, 756.555 375.148, 731 391.078 C 730.175 391.592, 728.825 392.282, 728 392.612 C 727.175 392.942, 722.374 395.239, 717.332 397.716 C 712.290 400.194, 707.657 402.052, 707.037 401.846 C 706.213 401.571, 705.914 379.172, 705.926 318.485 C 705.942 240.079, 705.634 229.157, 703.138 219.521 C 698.968 203.424, 681.571 183.779, 666 177.585 C 663.525 176.600, 660.600 175.299, 659.500 174.694 C 658.165 173.959, 643.037 173.457, 614 173.183 C 567.848 172.748, 569.044 172.891, 569.015 167.807 C 568.996 164.369, 565.632 158.644, 562.379 156.513 C 556.296 152.527, 552.449 152.026, 523.769 151.489 C 493.565 150.923, 494 150.979, 494 147.611 C 494 146.363, 492.808 142.002, 491.351 137.920 C 484.769 119.479, 470.569 104.809, 452 97.265 C 450.625 96.706, 448.150 95.690, 446.500 95.006 C 437.601 91.321, 417.147 89.867, 407.500 92.234 M 657.077 502.589 L 654 505.178 654 538.516 L 654 571.855 656.635 573.927 C 660.243 576.766, 707.787 577.144, 713.610 574.381 C 718.404 572.106, 718.500 571.354, 718.500 536.155 L 718.500 504.810 715.500 502.410 C 712.506 500.014, 712.451 500.010, 686.327 500.005 L 660.153 500 657.077 502.589 M 787 500.706 C 780.903 502.935, 781 502.320, 781 538.602 L 781 571.855 783.706 573.983 C 786.344 576.059, 787.120 576.104, 814.796 575.806 L 843.179 575.500 845.090 573.139 C 847.979 569.569, 848.044 507.511, 845.162 503.952 C 842.490 500.652, 794.478 497.973, 787 500.706 M 791 635.680 C 779.870 636.825, 780 636.356, 780 675.345 L 780 706.888 782.413 709.694 L 784.827 712.500 813.500 712.500 L 842.173 712.500 844.587 709.694 L 847 706.888 847 673.619 L 847 640.349 844.572 638.068 C 842.216 635.854, 805.301 634.209, 791 635.680 M 656.073 638.635 C 654.070 641.180, 654 642.396, 654 674.461 L 654 707.651 656.582 710.076 L 659.164 712.500 685.877 712.500 C 715.820 712.500, 717.322 712.190, 718.507 705.758 C 720.041 697.427, 718.557 641.494, 716.727 638.704 L 714.954 636 686.550 636 L 658.145 636 656.073 638.635" stroke="none" fill="#d2d3d3" fill-rule="evenodd"/><path d="M 409 91.993 C 407.625 92.452, 403.800 93.626, 400.500 94.603 C 376.827 101.608, 355.993 124.021, 352.501 146.242 C 351.745 151.047, 353.044 150.841, 320.500 151.310 C 297.784 151.638, 293.005 151.963, 290.378 153.359 C 286.003 155.685, 278.215 164.271, 277.403 167.664 C 276.135 172.963, 277.203 172.812, 240.203 172.921 C 189.394 173.069, 185.757 173.455, 172.679 180.089 C 155.064 189.024, 142.390 204.722, 137.389 223.799 C 135.311 231.728, 135.311 803.272, 137.389 811.201 C 142.810 831.880, 158.379 848.998, 179.500 857.503 L 186.500 860.322 265.500 861.033 C 308.950 861.425, 427.862 861.690, 529.748 861.623 L 714.997 861.500 715.422 828.500 C 716.024 781.838, 711.658 786.500, 754.758 786.500 C 796.117 786.500, 791 780.957, 791 825.755 L 791 861.127 843.750 860.792 L 896.500 860.457 901.500 857.638 C 908.623 853.621, 909.557 852.575, 912.431 845.397 L 915 838.979 915 642.640 L 915 446.300 912.130 442.339 C 909.290 438.418, 900.693 433.641, 875.500 421.988 C 871.650 420.207, 858.600 413.909, 846.500 407.992 C 816.282 393.216, 785.808 378.617, 776.849 374.626 C 771.606 372.291, 769.078 372.577, 761.360 376.379 C 757.587 378.237, 747.300 383.218, 738.500 387.447 C 729.700 391.676, 718.951 396.919, 714.613 399.098 C 704.675 404.091, 705.864 415.279, 705.603 314.332 C 705.351 216.854, 705.796 223.460, 698.480 208.658 C 692.898 197.363, 674.535 179, 668.823 179 C 668.040 179, 666.972 178.582, 666.450 178.070 C 662.557 174.259, 657.409 173.798, 613.522 173.334 C 567.618 172.848, 569.045 173.029, 569.015 167.715 C 568.948 155.395, 560.087 152.267, 523.499 151.642 C 501.574 151.268, 495.356 150.876, 494.811 149.832 C 494.428 149.100, 493.391 145.800, 492.505 142.500 C 487.549 124.040, 464.738 98, 453.524 98 C 452.751 98, 451.873 97.604, 451.574 97.119 C 451.274 96.635, 450.010 95.996, 448.765 95.698 C 447.519 95.401, 442.956 94.222, 438.623 93.079 C 430.393 90.907, 414.047 90.307, 409 91.993 M 198.500 224.209 C 194.614 225.571, 192.345 227.577, 189.120 232.500 L 186.500 236.500 186.757 517.327 L 187.015 798.153 189.654 801.612 C 191.105 803.515, 193.689 806.068, 195.396 807.286 L 198.500 809.500 393.500 809.500 L 588.500 809.500 589 637.500 C 589.563 443.907, 588.755 461.333, 597.473 454.676 C 601.742 451.416, 612.618 445.711, 625.500 439.972 C 637.779 434.502, 653.651 426.636, 655.250 425.230 C 656.893 423.784, 657 417.997, 657 330.454 L 657 237.218 653.702 232.432 C 647.517 223.457, 647.743 223.500, 606.714 223.500 C 567.032 223.500, 569.436 223.050, 569.153 230.533 C 568.753 241.108, 561.283 248.442, 546.846 252.436 C 538.074 254.863, 306.218 254.801, 298.505 252.370 C 287.224 248.814, 278.749 240.076, 276.541 229.725 C 275.077 222.862, 275.849 222.991, 236.750 223.079 C 214.877 223.128, 200.361 223.557, 198.500 224.209 M 336.703 326.679 C 333.805 327.159, 321.896 338.672, 316.203 346.500 C 314.602 348.700, 312.278 351.400, 311.037 352.500 C 309.796 353.600, 306.474 357.425, 303.655 361 C 300.835 364.575, 296.869 369.300, 294.841 371.500 C 292.813 373.700, 289.523 377.637, 287.531 380.250 C 285.539 382.863, 283.121 385, 282.160 385 C 281.198 385, 278.742 382.863, 276.703 380.250 C 256.991 355.002, 235.875 353.564, 235.875 377.470 C 235.875 385.127, 235.878 385.132, 252.500 404.498 C 258 410.906, 263.850 417.853, 265.500 419.936 C 275.441 432.485, 288.299 432.589, 298.724 420.206 C 302.815 415.348, 318.016 397.914, 339.840 373.052 C 356.605 353.952, 358.421 350.839, 357.741 342.366 C 356.833 331.050, 348.380 324.747, 336.703 326.679 M 399.942 350.948 C 382.328 356.293, 381.320 382.607, 398.500 388.579 C 404.671 390.725, 579.243 390.666, 584.128 388.517 C 600.217 381.439, 600.340 357.164, 584.316 351.449 C 580.042 349.924, 404.883 349.449, 399.942 350.948 M 332.822 472.626 C 330.282 473.967, 327.454 477.011, 318.075 488.500 C 315.830 491.250, 310.177 497.775, 305.513 503 C 300.848 508.225, 293.987 516.196, 290.266 520.713 C 281.845 530.935, 281.226 530.979, 273.500 521.889 C 256.273 501.621, 236 502.927, 236 524.306 C 236 531.317, 235.794 530.992, 252.552 550.500 C 276.614 578.511, 284.492 580.463, 299.545 562.141 C 302.545 558.488, 308.615 551.450, 313.032 546.500 C 317.449 541.550, 323.353 534.800, 326.152 531.500 C 328.951 528.200, 335.553 520.833, 340.822 515.130 C 357.200 497.403, 357.502 496.898, 357.486 487.315 C 357.462 473.691, 344.935 466.230, 332.822 472.626 M 459.955 491 C 390.571 491.555, 395.086 491.087, 389.598 498.282 C 381.682 508.661, 386.091 524.642, 398.297 529.815 C 402.330 531.524, 528.721 531.509, 532.703 529.799 C 552.637 521.238, 547.766 492.923, 526 490.836 C 524.075 490.651, 494.355 490.725, 459.955 491 M 657.077 502.589 L 654 505.178 654 538.415 L 654 571.651 656.314 573.826 C 659.431 576.754, 707.608 577.229, 713.590 574.390 C 718.750 571.942, 719.124 569.102, 718.792 534.899 L 718.500 504.824 715.694 502.412 L 712.888 500 686.521 500 L 660.153 500 657.077 502.589 M 785.500 501.155 C 781.022 503.604, 781 503.786, 781 538.503 C 781 581.026, 776.708 576.172, 813.976 575.793 C 845.247 575.475, 865.445 529, 845.185 503.980 C 842.168 500.254, 791.529 497.857, 785.500 501.155 M 334.500 615.657 C 330.625 617.693, 325.770 622.232, 320.760 628.500 C 318.562 631.250, 313.735 636.875, 310.034 641 C 306.332 645.125, 300.567 651.650, 297.222 655.500 C 293.877 659.350, 288.937 664.947, 286.245 667.938 L 281.350 673.376 277.587 669.438 C 275.517 667.272, 271.798 662.946, 269.322 659.823 C 258.461 646.127, 246.915 644.556, 238.473 655.625 C 231.885 664.261, 234.646 674.159, 247.504 688 C 250.314 691.025, 256.137 697.775, 260.444 703 C 279.287 725.858, 283.298 725.161, 310.230 694.345 C 314.481 689.480, 325.506 677.040, 334.730 666.701 C 357.580 641.087, 357.500 641.207, 357.500 632.298 C 357.500 619.374, 344.847 610.219, 334.500 615.657 M 396.311 636.924 C 382.905 643.080, 382.721 663.716, 395.991 672.750 L 399.296 675 466.091 675 C 532.600 675, 532.901 674.991, 536.522 672.854 C 548.174 665.980, 548.631 644.907, 537.281 637.851 L 533.500 635.500 467 635.250 C 403.209 635.011, 400.329 635.079, 396.311 636.924 M 789.020 635.685 C 780.120 636.584, 780.091 636.706, 779.816 674.367 C 779.507 716.727, 776.312 713.256, 815.197 712.808 L 841.958 712.500 844.427 710 C 847.051 707.343, 847.361 700.533, 847.069 651.903 C 846.970 635.334, 832.500 631.291, 789.020 635.685 M 656.073 638.635 C 652.945 642.611, 652.829 706.829, 655.944 709.944 C 660.221 714.221, 711.990 714.459, 716.224 710.222 L 718.500 707.944 718.500 674.678 C 718.500 644.516, 718.335 641.160, 716.727 638.706 L 714.954 636 686.550 636 L 658.145 636 656.073 638.635" stroke="none" fill="#141c1f" fill-rule="evenodd"/><path d="M 198.500 224.209 C 194.614 225.571, 192.345 227.577, 189.120 232.500 L 186.500 236.500 186.757 517.327 L 187.015 798.153 189.654 801.612 C 191.105 803.515, 193.689 806.068, 195.396 807.286 L 198.500 809.500 393.500 809.500 L 588.500 809.500 589 637.500 C 589.563 443.907, 588.755 461.333, 597.473 454.676 C 601.742 451.416, 612.618 445.711, 625.500 439.972 C 637.779 434.502, 653.651 426.636, 655.250 425.230 C 656.893 423.784, 657 417.997, 657 330.454 L 657 237.218 653.702 232.432 C 647.517 223.457, 647.743 223.500, 606.714 223.500 C 567.032 223.500, 569.436 223.050, 569.153 230.533 C 568.753 241.108, 561.283 248.442, 546.846 252.436 C 538.074 254.863, 306.218 254.801, 298.505 252.370 C 287.224 248.814, 278.749 240.076, 276.541 229.725 C 275.077 222.862, 275.849 222.991, 236.750 223.079 C 214.877 223.128, 200.361 223.557, 198.500 224.209 M 336.703 326.679 C 333.805 327.159, 321.896 338.672, 316.203 346.500 C 314.602 348.700, 312.278 351.400, 311.037 352.500 C 309.796 353.600, 306.474 357.425, 303.655 361 C 300.835 364.575, 296.869 369.300, 294.841 371.500 C 292.813 373.700, 289.523 377.637, 287.531 380.250 C 285.539 382.863, 283.121 385, 282.160 385 C 281.198 385, 278.742 382.863, 276.703 380.250 C 256.991 355.002, 235.875 353.564, 235.875 377.470 C 235.875 385.127, 235.878 385.132, 252.500 404.498 C 258 410.906, 263.850 417.853, 265.500 419.936 C 275.441 432.485, 288.299 432.589, 298.724 420.206 C 302.815 415.348, 318.016 397.914, 339.840 373.052 C 356.605 353.952, 358.421 350.839, 357.741 342.366 C 356.833 331.050, 348.380 324.747, 336.703 326.679 M 399.942 350.948 C 382.328 356.293, 381.320 382.607, 398.500 388.579 C 404.671 390.725, 579.243 390.666, 584.128 388.517 C 600.217 381.439, 600.340 357.164, 584.316 351.449 C 580.042 349.924, 404.883 349.449, 399.942 350.948 M 332.822 472.626 C 330.282 473.967, 327.454 477.011, 318.075 488.500 C 315.830 491.250, 310.177 497.775, 305.513 503 C 300.848 508.225, 293.987 516.196, 290.266 520.713 C 281.845 530.935, 281.226 530.979, 273.500 521.889 C 256.273 501.621, 236 502.927, 236 524.306 C 236 531.317, 235.794 530.992, 252.552 550.500 C 276.614 578.511, 284.492 580.463, 299.545 562.141 C 302.545 558.488, 308.615 551.450, 313.032 546.500 C 317.449 541.550, 323.353 534.800, 326.152 531.500 C 328.951 528.200, 335.553 520.833, 340.822 515.130 C 357.200 497.403, 357.502 496.898, 357.486 487.315 C 357.462 473.691, 344.935 466.230, 332.822 472.626 M 459.955 491 C 390.571 491.555, 395.086 491.087, 389.598 498.282 C 381.682 508.661, 386.091 524.642, 398.297 529.815 C 402.330 531.524, 528.721 531.509, 532.703 529.799 C 552.637 521.238, 547.766 492.923, 526 490.836 C 524.075 490.651, 494.355 490.725, 459.955 491 M 334.500 615.657 C 330.625 617.693, 325.770 622.232, 320.760 628.500 C 318.562 631.250, 313.735 636.875, 310.034 641 C 306.332 645.125, 300.567 651.650, 297.222 655.500 C 293.877 659.350, 288.937 664.947, 286.245 667.938 L 281.350 673.376 277.587 669.438 C 275.517 667.272, 271.798 662.946, 269.322 659.823 C 258.461 646.127, 246.915 644.556, 238.473 655.625 C 231.885 664.261, 234.646 674.159, 247.504 688 C 250.314 691.025, 256.137 697.775, 260.444 703 C 279.287 725.858, 283.298 725.161, 310.230 694.345 C 314.481 689.480, 325.506 677.040, 334.730 666.701 C 357.580 641.087, 357.500 641.207, 357.500 632.298 C 357.500 619.374, 344.847 610.219, 334.500 615.657 M 396.311 636.924 C 382.905 643.080, 382.721 663.716, 395.991 672.750 L 399.296 675 466.091 675 C 532.600 675, 532.901 674.991, 536.522 672.854 C 548.174 665.980, 548.631 644.907, 537.281 637.851 L 533.500 635.500 467 635.250 C 403.209 635.011, 400.329 635.079, 396.311 636.924" stroke="none" fill="#ff9200" fill-rule="evenodd"/></svg>